# xmcd CD database file
#
# Track frame offsets:
#	150
#	21405
#	42170
#	65722
#	88437
#	107890
#	128132
#	142172
#	165272
#	184957
#	205007
#	225865
#	243400
#	265930
#	298565
#
# Disc length: 4286 seconds
#
# Revision: 10
# Processed by: cddbd v1.5.2PL0 Copyright (c) Steve Scherf et al.
# Submitted via: CDex 1.51
#
DISCID=dc10bc0f
DTITLE=החברים של נטשה - בהופעה חיה
DYEAR=1996
DGENRE=Hebrew
TTITLE0=עכשיו אני
TTITLE1=אני אוהב אותך
TTITLE2=יש בך
TTITLE3=קוק בצהרים
TTITLE4=בדקה אחת שפויה
TTITLE5=מלנכולי
TTITLE6=שני סיפורי אהבה
TTITLE7=יש זמן
TTITLE8=על קו הזינוק
TTITLE9=טמבל
TTITLE10=אני לא רוקד כשעצוב
TTITLE11=שברי את הטלוויזיה
TTITLE12=איש בלי נצח
TTITLE13=אם כבר לבד
TTITLE14=נאמר כבר הכל
EXTD=YEAR: 1996
EXTT0=
EXTT1=
EXTT2=
EXTT3=
EXTT4=
EXTT5=
EXTT6=
EXTT7=
EXTT8=
EXTT9=
EXTT10=
EXTT11=
EXTT12=
EXTT13=
EXTT14=
PLAYORDER=
